<?xml version="1.0" encoding="utf-8"?>
<!-- Generator: Adobe Illustrator 26.4.1, SVG Export Plug-In . SVG Version: 6.00 Build 0)  -->
<svg version="1.1" id="Capa_1" xmlns="http://www.w3.org/2000/svg" xmlns:xlink="http://www.w3.org/1999/xlink" x="0px" y="0px"
	 viewBox="0 0 100 49.1" style="enable-background:new 0 0 100 49.1;" xml:space="preserve">
<style type="text/css">
	.st0{fill:#050505;}
	.st1{fill:#151596;}
	.st2{fill:#EBAD29;}
	.st3{fill:#D20306;}
</style>
<g>
	<path class="st0" d="M90.9,23c0,1.1-0.1,2.1-0.2,3.1c-0.1,1-0.3,1.9-0.7,2.7c0,0-0.1,0.1-0.1,0.1c0-0.1,0-0.1,0-0.2
		c0.5-1.4,0.7-2.9,0.6-4.4c0-1-0.1-2-0.1-3c-0.1-3.1-1.5-5.5-4.1-7c-4.4-2.5-10-0.2-11.3,4.8c-0.2,0.7-0.2,1.3-0.2,2
		c0,1.4,0,2.9,0,4.3c0,1.5,0.5,2.9,1.6,4c1.4,1.5,3.2,2.2,5.2,2.1c2.1-0.1,3.7-1.2,4.9-2.8c0.7-1,1-2.1,1.1-3.3c0-1.5,0-3,0-4.5
		c-0.1-2.5-1.9-4.4-4.3-4.8c-2.3-0.3-5.2,1.2-5.6,4.2c-0.1,0.5-0.1,1-0.1,1.5c0,1.2,0,2.3,0,3.5c0,1.7,1.2,3.1,2.7,3.5
		c1.6,0.4,3.3-0.3,4.1-1.8c0.3-0.5,0.4-1.1,0.4-1.7c0-1.4,0-2.9,0-4.3c0-0.9-0.7-1.9-1.8-2.1c-1.2-0.2-2.4,0.5-2.6,1.7
		c-0.1,0.5-0.1,1-0.1,1.5c0,1,0,2.1,0,3.1c0,0.7,0.5,1.1,1.1,0.9c0.4-0.1,0.7-0.5,0.7-1c0-1.2,0-2.4,0-3.7c0-0.2,0-0.3,0-0.5
		c0-0.2,0.2-0.3,0.4-0.3c0.3,0,0.4,0.1,0.5,0.3c0,0.2,0.1,0.3,0.1,0.5c0,1.3,0,2.5,0,3.8c0,0.9-0.4,1.5-1.2,1.8
		c-1,0.4-2.2-0.2-2.4-1.2c-0.1-0.3-0.1-0.7-0.1-1c0-1.1,0-2.2,0-3.3c0-0.3,0-0.6,0.1-1c0.1-0.5,0.3-1,0.6-1.4
		c0.9-1.1,2.2-1.5,3.5-1.1c1.3,0.4,2.2,1.5,2.2,2.8c0.1,1.7,0.2,3.4,0,5.1c-0.2,1.6-1.1,2.7-2.5,3.4c-2.9,1.5-6.4-0.5-6.6-3.7
		c0-0.6,0-1.2,0-1.7c0-1.2,0-2.4,0.1-3.6c0.2-2.5,2.2-4.6,4.7-5.1c3.1-0.6,6.2,1.3,7,4.4c0.1,0.4,0.2,0.9,0.2,1.3c0,1.6,0,3.1,0,4.6
		c0,1.9-0.8,3.4-2.1,4.7c-1.6,1.7-3.7,2.4-6,2.2c-1.7-0.1-3.1-0.9-4.4-2c-1.3-1.2-2-2.7-2.1-4.4c-0.1-1.5-0.2-2.9-0.1-4.4
		c0.1-1.1,0.1-2.3,0.5-3.4c0.6-2.1,2-3.7,3.9-4.8c3.7-2.2,7.9-1.3,10.5,1.4c1.5,1.5,2.3,3.3,2.4,5.4C90.9,21.2,90.9,22.1,90.9,23z"
		/>
	<path class="st0" d="M83.9,34.2c0.2,0,0.4,0,0.6,0c0,0,0.1,0.1,0.1,0.1c0.2,0.5,0.3,1.1,0.4,1.6c0,0.1,0,0.1,0.1,0.2
		c0-0.6,0-1.3,0-1.9c0.2,0,0.3,0,0.5,0c0,1.1,0,2.3,0,3.4c-0.2,0-0.4,0-0.6,0c-0.2-0.8-0.4-1.5-0.6-2.3c0,0,0,0,0,0
		c0,0.8,0,1.5,0,2.3c-0.2,0-0.3,0-0.5,0C83.9,36.5,83.9,35.3,83.9,34.2z"/>
	<path class="st0" d="M81.8,34.2c0.2,0,0.4,0,0.6,0c0,0,0.1,0.1,0.1,0.1c0.2,0.5,0.3,1.1,0.4,1.6c0,0.1,0,0.1,0.1,0.2
		c0-0.6,0-1.3,0-1.9c0.2,0,0.3,0,0.5,0c0,1.1,0,2.3,0,3.5c-0.2,0-0.3,0-0.5,0c0,0-0.1-0.1-0.1-0.2c-0.2-0.7-0.4-1.4-0.6-2.1
		c0,0.8,0,1.5,0,2.3c-0.2,0-0.3,0-0.5,0C81.8,36.5,81.8,35.4,81.8,34.2z"/>
	<path class="st0" d="M73.2,34.2c0.3,0,0.7,0,1,0c0.4,0,0.6,0.2,0.6,0.6c0,0.2,0,0.3,0,0.5c0,0.2-0.1,0.4-0.3,0.5
		c0.3,0.2,0.4,0.5,0.4,0.8c0,0.2,0,0.3,0,0.5c-0.1,0.4-0.3,0.6-0.6,0.6c-0.3,0-0.7,0-1,0C73.2,36.5,73.2,35.3,73.2,34.2z M73.7,37.1
		c0.1,0,0.2,0,0.3,0c0.1,0,0.2-0.1,0.2-0.2c0-0.2,0-0.4,0-0.6c0-0.1-0.1-0.2-0.2-0.2c-0.1,0-0.2,0-0.3,0
		C73.7,36.4,73.7,36.8,73.7,37.1z M73.7,35.6c0.2,0,0.4,0.1,0.5-0.1c0.1-0.2,0-0.5,0-0.7c-0.1-0.2-0.3-0.1-0.4-0.1
		C73.7,35,73.7,35.3,73.7,35.6z"/>
	<path class="st0" d="M77.8,34.2c0.4,0,0.7,0,1.1,0c0.3,0,0.5,0.2,0.5,0.5c0,0.3,0,0.5,0,0.8c0,0.2-0.2,0.3-0.2,0.5
		c0.3,0.2,0.3,0.5,0.3,0.8c0,0.3,0,0.6,0,0.9c-0.1,0-0.3,0-0.4,0c0,0-0.1-0.1-0.1-0.2c0-0.3,0-0.5,0-0.8c0-0.4-0.1-0.5-0.5-0.4
		c0,0.5,0,0.9,0,1.4c-0.2,0-0.4,0-0.5,0C77.8,36.5,77.8,35.4,77.8,34.2z M78.4,34.7c0,0.4,0,0.7,0,1c0.3,0,0.5,0,0.5-0.2
		c0-0.2,0-0.4,0-0.6c0-0.2-0.1-0.2-0.3-0.2C78.5,34.7,78.5,34.7,78.4,34.7z"/>
	<path class="st0" d="M89.3,36c0.2,0.1,0.3,0.4,0.3,0.6c0,0.3,0,0.7,0,1.1c-0.1,0-0.3,0-0.4,0c-0.1,0-0.1-0.1-0.1-0.2
		c0-0.3,0-0.5,0-0.8c0-0.4-0.1-0.5-0.5-0.4c0,0.5,0,0.9,0,1.4c-0.2,0-0.4,0-0.5,0c0-1.1,0-2.3,0-3.4c0.4,0,0.7,0,1.1,0
		c0.3,0,0.4,0.2,0.5,0.5c0,0.3,0,0.5,0,0.8C89.5,35.6,89.4,35.8,89.3,36z M88.5,35.7c0.4,0.1,0.5,0,0.5-0.4c0-0.1,0-0.1,0-0.2
		c0-0.4-0.1-0.5-0.5-0.4C88.5,35,88.5,35.4,88.5,35.7z"/>
	<path class="st0" d="M79.8,34.2c0.2,0,0.4,0,0.6,0c0,0.1,0,0.1,0,0.2c0,0.8,0,1.6,0,2.4c0,0.1,0,0.2,0.1,0.3c0.1,0.1,0.2,0.1,0.3,0
		c0.1,0,0.2-0.2,0.2-0.3c0-0.5,0-1.1,0-1.6c0-0.4,0-0.7,0-1.1c0.2,0,0.3,0,0.5,0c0,0,0,0.1,0,0.1c0,0.9,0,1.7,0,2.6
		c0,0.3-0.1,0.6-0.4,0.7c-0.3,0.2-0.6,0.2-0.9,0c-0.3-0.2-0.3-0.4-0.3-0.7c0-0.8,0-1.5,0-2.3C79.8,34.4,79.8,34.3,79.8,34.2z"/>
	<path class="st0" d="M91.5,35.1c-0.2,0-0.4,0-0.5,0c0-0.1,0-0.2,0-0.2c0-0.2-0.1-0.2-0.3-0.2c-0.2,0-0.2,0.1-0.2,0.2
		c0,0.2,0,0.4,0.1,0.5c0.1,0.2,0.3,0.3,0.5,0.5c0.4,0.3,0.5,0.8,0.4,1.3c-0.1,0.3-0.3,0.5-0.7,0.5c-0.4,0-0.7-0.2-0.8-0.5
		c0-0.2,0-0.4-0.1-0.6c0.2,0,0.4,0,0.6,0c0,0.1,0,0.2,0,0.3c0,0.2,0.1,0.3,0.3,0.2c0.2,0,0.2-0.1,0.3-0.2c0-0.2,0-0.4-0.2-0.5
		c-0.1-0.2-0.3-0.3-0.4-0.4c-0.4-0.3-0.5-0.7-0.4-1.2c0.1-0.4,0.3-0.6,0.8-0.6c0.4,0,0.7,0.2,0.8,0.6C91.5,34.9,91.5,35,91.5,35.1z"
		/>
	<path class="st0" d="M86.6,37.1c0.3,0,0.6,0,0.9,0c0,0.2,0,0.3,0,0.5c-0.5,0-1,0-1.5,0c0-1.1,0-2.3,0-3.4c0.5,0,1,0,1.5,0
		c0,0.2,0,0.3,0,0.5c-0.3,0-0.6,0-0.9,0c0,0.3,0,0.6,0,1c0.2,0,0.5,0,0.7,0c0,0.2,0,0.3,0,0.5c-0.2,0-0.5,0-0.7,0
		C86.6,36.5,86.6,36.8,86.6,37.1z"/>
	<path class="st0" d="M75.2,34.2c0.5,0,1,0,1.5,0c0,0.2,0,0.3,0,0.5c-0.3,0-0.6,0-0.9,0c0,0.3,0,0.6,0,1c0.2,0,0.5,0,0.7,0
		c0,0.2,0,0.3,0,0.5c-0.2,0-0.5,0-0.7,0c0,0.3,0,0.7,0,1c0.3,0,0.6,0,0.9,0c0,0.2,0,0.3,0,0.5c-0.5,0-1,0-1.5,0
		C75.2,36.5,75.2,35.3,75.2,34.2z"/>
</g>
<path class="st1" d="M52.2,4.8c0.6,0.1,0.6,0.6,0.7,1c0.1,0.8-0.1,1.6-0.4,2.4c-0.8,2.2-1.9,4.3-3.3,6.2c-1.6,2.3-3.3,4.6-4.9,6.8
	c-0.2,0.3-0.5,0.6-0.8,0.9c-0.5,0.5-0.7,1-0.8,1.6c-0.2,0.8-0.3,1.5-0.5,2.3c0,0.2,0,0.4,0.1,0.7c0.2-0.1,0.4-0.2,0.5-0.3
	c1.1-0.9,2-1.9,2.9-3c0.1-0.1,0.1-0.2,0.2-0.2c0.5-0.6,0.9-1.3,1.2-2.1c0.9-2.3,2.4-4.1,4.2-5.7c0.6-0.5,1.3-0.9,2-1.1
	c0.2,0,0.4,0,0.5,0c0.5,0.1,0.7,0.5,0.6,1c-0.1,0.8-0.5,1.4-1,2c-0.8,1-1.9,1.8-3,2.5C50.2,19.9,50,20,49.8,20
	c-0.2-0.3-0.2-0.3,0-0.5c1.2-1,2.2-2.1,3-3.4c0.2-0.3,0.3-0.6,0.4-0.9c0,0,0,0-0.1-0.1c-0.1,0.1-0.3,0.1-0.4,0.2
	c-0.6,0.4-1.1,1-1.5,1.6c-1.2,1.6-2.3,3.3-3,5.2c-0.3,0.8-0.5,1.5-0.6,2.4c0,0.5,0.2,0.7,0.6,0.4c0.3-0.2,0.6-0.4,0.8-0.7
	c0.7-0.9,1.5-1.8,2.2-2.8c1-1.4,2-2.8,3-4.2c0.5-0.7,0.9-1.4,1.3-2.1c0.1-0.2,0.3-0.4,0.5-0.6c0.4-0.3,0.8,0,0.8,0.4
	c0,0.2,0,0.4-0.1,0.7c-0.1,0.5-0.2,1-0.3,1.5c0,0,0,0.1,0,0.2c0.4-0.6,0.8-1.2,1.2-1.7c0.5-0.7,1-1.4,1.5-2.1
	c0.1-0.1,0.2-0.2,0.3-0.3c0.3-0.3,0.7-0.3,1,0c0.2,0.2,0.3,0.4,0.1,0.8c-0.3,0.6-0.6,1.1-0.9,1.7c0,0.1-0.1,0.2-0.1,0.3
	c-0.1,0.3-0.3,0.4-0.6,0.4c-0.3,0-0.5-0.2-0.6-0.5c-0.1,0.1-0.1,0.1-0.1,0.2c-1.7,2.1-2.9,4.5-3.9,7c-0.1,0.3-0.2,0.6-0.4,0.8
	c-0.2,0.4-0.5,0.4-0.8,0.1c-0.2-0.2-0.3-0.5-0.2-0.7c0-0.2,0.1-0.4,0.2-0.5c0.7-1.8,1.3-3.5,2-5.3c0,0,0-0.1,0-0.2
	c0,0.1-0.1,0.1-0.1,0.2c-1.2,1.8-2.4,3.7-3.7,5.5c-0.5,0.7-1.1,1.3-1.6,2c-0.4,0.5-1,0.8-1.6,1C48,26,47.7,26,47.5,26
	c-0.8,0-1.2-0.5-1.2-1.3c0-0.3,0-0.6,0-0.9c-0.2,0.3-0.4,0.6-0.6,0.8c-0.9,1.1-1.9,2.1-3,3c-0.2,0.2-0.5,0.3-0.7,0.4
	c-0.6,0.2-1.1-0.1-1.2-0.8c0-0.5,0-1,0-1.5c0-0.2,0-0.4,0-0.6c-0.1,0.1-0.3,0.2-0.4,0.3c-0.6,0.5-1.1,1-1.8,1.4
	c-0.2,0.1-0.4,0.2-0.6,0.2c-0.8,0.2-1.3-0.2-1.4-1c0-0.3,0-0.6,0-0.9c-0.3,0.4-0.5,0.8-0.8,1.2c-0.5,0.8-1.1,1.6-1.8,2.3
	c-0.3,0.3-0.6,0.5-0.9,0.8c-0.3,0.2-0.6,0.4-1,0.1c-0.3-0.2-0.5-0.6-0.4-1.1c0.3-1.3,0.7-2.6,1.2-3.8c0.5-1.2,1-2.3,1.5-3.5
	c0-0.1,0-0.1,0-0.2c-0.1,0.1-0.2,0.2-0.3,0.4c-1.8,2.3-3.5,4.6-5,7.1c-0.1,0.1-0.1,0.2-0.2,0.3c-0.2,0.2-0.4,0.2-0.6,0.1
	c-0.4-0.2-0.5-0.6-0.4-1c0.1-0.4,0.3-0.9,0.5-1.3c0.7-1.7,1.3-3.5,2-5.2c0-0.1,0.1-0.2,0.1-0.3c0,0-0.1,0.1-0.1,0.1
	c-0.9,1.4-2,2.6-3.2,3.7c-0.4,0.4-0.7,0.8-0.9,1.2c-0.6,1.2-1.2,2.3-2.2,3.3c-0.5,0.5-1,1-1.8,1.2c-1,0.2-1.8-0.2-2-1.2
	c-0.1-0.3-0.1-0.6,0-1c0.1-1.3,0.6-2.4,1.2-3.5c0.5-0.9,1.1-1.8,1.9-2.5c0.3-0.3,0.6-0.4,1-0.3c0,0,0,0.1,0,0.2
	c0.1-0.1,0.1-0.2,0.1-0.2c0.4-0.7,0.9-1.3,1.6-1.8c0.2-0.1,0.4-0.2,0.6-0.2c0.4-0.1,0.8,0.2,0.8,0.6c0.1,0.9,0.1,1.8-0.1,2.7
	c0,0.1,0,0.1-0.1,0.2c0.3-0.3,0.6-0.5,0.9-0.8c1.4-1.5,2.4-3.1,3.3-4.9c0.1-0.1,0.1-0.2,0.2-0.3c0.2-0.2,0.3-0.3,0.6-0.2
	c0.3,0.1,0.4,0.3,0.4,0.5c0,0.3,0,0.5-0.1,0.8c-0.3,1.4-0.7,2.7-1.2,3.9c-0.2,0.6-0.5,1.2-0.7,1.8c0,0,0,0.1,0,0.1
	c0.1-0.2,0.2-0.3,0.3-0.5c1.2-1.6,2.4-3.2,3.6-4.8c0.3-0.3,0.6-0.6,0.9-0.9c0.1-0.1,0.1-0.1,0.2-0.1c0.2-0.1,0.5-0.1,0.7,0.1
	c0.2,0.2,0.2,0.5,0.1,0.7c-0.3,0.8-0.6,1.6-0.9,2.4c-0.7,1.8-1.5,3.6-2.2,5.5c-0.1,0.3-0.2,0.5-0.3,0.8c0,0,0,0,0.1,0
	c0.1-0.1,0.1-0.1,0.2-0.2c1-0.8,1.6-1.9,2.4-2.9c0.7-1,1.3-2.1,1.9-3.3c0.8-1.7,2-3.1,3.5-4.2c0.7-0.5,1.4-0.8,2.2-0.8
	c0.2,0,0.3-0.1,0.4-0.3c0.4-0.8,0.9-1.7,1.3-2.5c1.3-2.4,2.7-4.7,4.4-6.8c0.6-0.7,1.2-1.3,1.9-1.9C51.8,5,52,4.9,52.2,4.8
	C52.2,4.8,52.2,4.8,52.2,4.8z M51.9,5.9C51.9,5.9,51.9,5.9,51.9,5.9c-0.2,0-0.3,0.1-0.4,0.2c-0.7,1-1.4,1.9-2.1,2.9
	c-2.3,3.5-4.1,7.3-5.6,11.2c-0.1,0.1-0.1,0.3-0.1,0.4c0.1,0,0.1,0,0.1-0.1c2-2.5,3.8-5.2,5.3-7.9c1.2-2.1,2.2-4.2,2.7-6.6
	C51.9,6.1,51.9,6,51.9,5.9z M43.3,17.6C43.3,17.5,43.3,17.5,43.3,17.6c-0.2,0-0.5,0.1-0.7,0.3c-0.4,0.3-0.9,0.7-1.2,1
	c-0.8,0.8-1.4,1.7-1.9,2.7c-0.6,1-1,2-1.2,3.1c-0.1,0.3-0.1,0.7-0.1,1c0,0.3,0.1,0.4,0.4,0.2c0.1,0,0.2-0.1,0.2-0.1
	c0.6-0.5,1.2-0.9,1.7-1.4c0.3-0.2,0.5-0.5,0.6-0.9c0.4-1.2,0.9-2.4,1.3-3.6C42.7,19.1,43,18.3,43.3,17.6z M23.9,23.6
	C23.8,23.6,23.8,23.6,23.9,23.6c-0.7,1.3-1.3,2.5-1.6,3.9c-0.1,0.6-0.2,1.2-0.1,1.9c0.1,0.4,0.4,0.5,0.7,0.2
	c0.4-0.4,0.9-0.7,1.1-1.2c0.3-0.6,0.7-1.2,1-1.7c0.1-0.1,0.1-0.2,0.2-0.3c-0.2,0-0.3,0.1-0.5,0.1c-0.7,0.1-1.1-0.2-1.2-0.9
	c0-0.3,0-0.6,0-0.9C23.7,24.3,23.8,23.9,23.9,23.6z M26.6,21.2C26.6,21.2,26.6,21.2,26.6,21.2c-0.1,0-0.2,0.1-0.3,0.2
	c-0.7,0.9-1.1,1.9-1.3,3.1c0,0.2,0,0.3,0,0.5c0,0.1,0.1,0.1,0.1,0.1c0.3,0.1,0.6-0.1,0.7-0.4c0.4-1.1,0.7-2.2,0.8-3.3
	C26.6,21.4,26.6,21.3,26.6,21.2z"/>
<path class="st2" d="M5.3,31.7c0.1-0.4,0.1-0.7,0.2-1.1c0.4-1.1,0.8-2.2,1.3-3.3c1.3-3.1,2.9-6.1,4.4-9.1c1-2.1,2.2-4.2,3-6.4
	c0-0.1,0.1-0.1,0.1-0.3c-0.1,0.1-0.2,0.1-0.2,0.2c-1.7,1.2-3,2.8-4.2,4.5c-1,1.5-1.8,3.1-2.5,4.8c-0.1,0.3-0.2,0.6-0.4,0.9
	c-0.2,0.3-0.4,0.5-0.6,0.7c-0.5-0.9-0.6-1.8-0.3-2.8c0.3-1,0.8-1.9,1.4-2.8c1.5-2.3,3.3-4.3,5.5-6c0.6-0.5,1.2-0.9,2-1
	c0.2,0,0.4,0,0.6,0c0.5,0.1,0.8,0.6,0.7,1.2c-0.3,1.1-0.6,2.2-1.1,3.3c-1.3,2.6-2.6,5.2-3.8,7.8c-1.3,2.6-2.5,5.2-3.6,7.8
	c0,0.1,0,0.1,0,0.2c0-0.1,0.1-0.1,0.1-0.2c2.3-3,4.3-6.2,6.3-9.4c1.6-2.5,3.2-5.1,4.7-7.6c0.2-0.3,0.4-0.5,0.6-0.7
	c0.3-0.3,0.7-0.3,1-0.1c0.3,0.2,0.5,0.6,0.4,0.9c-0.1,0.4-0.2,0.7-0.3,1.1c-1.6,4-3.2,7.9-4.8,11.9c-0.8,2.1-1.6,4.2-2.1,6.4
	c0,0,0,0,0,0.1c0.1-0.1,0.1-0.2,0.2-0.2c1.4-1.7,2.6-3.6,3.7-5.5c1.6-2.8,3.2-5.6,4.6-8.5c0.8-1.6,1.5-3.3,2.2-4.9
	c0.3-0.7,0.5-1.4,0.7-2.2c0.1-0.2,0.2-0.4,0.2-0.6c0.1-0.2,0.2-0.2,0.4-0.3c0.2,0,0.3,0,0.5-0.1c0.2,0.9,0.1,1.7-0.1,2.6
	c-0.4,1.7-1,3.2-1.7,4.8c-1.5,3.3-3.3,6.4-5.3,9.5c-1,1.5-1.9,3-3,4.4c-0.5,0.7-1.1,1.3-1.7,2c-0.2,0.3-0.6,0.5-0.9,0.6
	c-0.1,0.1-0.3,0.1-0.4,0.1c-0.5,0.1-1-0.2-1-0.8c-0.1-0.7,0-1.4,0.1-2.1c0.4-2.2,1.1-4.3,2-6.4c0.8-1.8,1.5-3.7,2.3-5.5
	c0-0.1,0-0.1,0-0.2c0,0.1-0.1,0.1-0.1,0.2c-2,3.3-4.1,6.6-6.4,9.8c-0.7,1-1.5,1.9-2.3,2.9c-0.2,0.3-0.6,0.6-1,0.6
	c-0.5,0-1-0.3-1.1-0.8c0-0.1,0-0.1-0.1-0.2C5.3,32,5.3,31.8,5.3,31.7z"/>
<path class="st1" d="M68.3,23.1c-0.1,0.6-0.2,1.3-0.4,1.9c-0.1,0.6-0.2,1.1-0.3,1.7c-0.2,1-0.8,1.5-1.8,1.6c-0.7,0.1-1.1-0.3-1-1
	c0-0.5,0.2-1,0.2-1.5c0.1-0.7,0.3-1.4,0.4-2.1c0.2-1,0.9-1.7,1.9-1.7c0.6,0,0.8,0.2,0.9,0.8c0,0,0,0,0,0.1
	C68.3,22.9,68.3,23,68.3,23.1z M67.3,23.4c0-0.4-0.1-0.5-0.4-0.4c-0.3,0-0.5,0.3-0.6,0.7c-0.1,0.7-0.3,1.4-0.4,2.1
	c-0.1,0.4-0.2,0.9-0.2,1.3c-0.1,0.4,0.1,0.5,0.5,0.4c0.3-0.1,0.4-0.3,0.5-0.6c0.1-0.7,0.3-1.4,0.4-2.2
	C67.1,24.2,67.2,23.7,67.3,23.4z"/>
<path class="st3" d="M39.9,36.9c2.9,0.3,5.7,1,8.4,1.9c0.9,0.3,1.7,0.5,2.5,0.9c0,0,0.1,0,0.1,0.1c0.2,0.1,0.4,0.3,0.4,0.6
	c0,0.3-0.2,0.5-0.4,0.6c-0.4,0.2-0.8,0.2-1.3,0.2c-1.9-0.1-3.8-0.5-5.7-1c-1.5-0.3-3-0.6-4.5-0.7c-0.9-0.1-1.8-0.2-2.6-0.3
	c-0.1,0-0.1,0-0.2,0c0,0.1-0.1,0.3-0.1,0.4c-0.3,1-0.6,1.9-0.9,2.9c-0.1,0.3-0.2,0.6-0.2,0.9c0,0.1-0.1,0.2-0.1,0.3
	c-0.2,0.5-0.5,0.6-1.1,0.5c-0.1,0-0.1,0-0.2,0c-0.5-0.1-0.8-0.4-0.8-1c0-1,0.5-1.8,0.7-2.7c0.2-0.5,0.4-1.1,0.5-1.6
	c-0.2,0.1-0.3,0.2-0.5,0.3c-0.6,0.3-1.4-0.1-1.4-0.8c0-0.2,0.1-0.4,0.1-0.6c0.4-0.7,1.1-1.1,1.9-1.4c0.2-0.1,0.5-0.1,0.6-0.3
	c0.1-0.2,0.1-0.4,0.2-0.7c0.2-0.8,0.4-1.6,0.7-2.4c0.1-0.4,0.3-0.7,0.4-1c-0.1,0-0.2,0-0.3,0c-0.5,0-1-0.1-1.5-0.1
	c-0.1,0-0.2,0-0.3,0c-0.5,0.2-1-0.1-1.3-0.5c-0.1-0.2-0.1-0.5,0.1-0.6c0.2-0.2,0.3-0.4,0.5-0.5c0.2-0.1,0.4-0.3,0.7-0.3
	c1.1-0.1,2.2,0,3.3,0.2c1.4,0.2,2.7,0.6,4,1.4c0.5,0.3,0.8,0.7,1,1.2c0,0.1,0,0.1,0.1,0.2c0.3,0.6,0.4,1.1,0.2,1.7
	c-0.2,0.6-0.6,1.1-1.1,1.4c-0.6,0.3-1.2,0.5-1.7,0.8C40,36.8,40,36.8,39.9,36.9z M37.4,35.4C37.5,35.4,37.5,35.4,37.4,35.4
	c1.2-0.3,2.4-0.6,3.5-1.1c0.2-0.1,0.2-0.2,0.2-0.4c0-0.2-0.1-0.4-0.3-0.4c-0.6-0.3-1.1-0.6-1.7-0.8c-0.3-0.2-0.7-0.2-1.1-0.3
	C37.9,33.4,37.7,34.4,37.4,35.4z"/>
<path class="st3" d="M53.7,34.1c-0.1,0.2-0.1,0.4-0.2,0.7c-0.2,0.7-0.4,1.4-0.6,2.2c-0.1,0.6-0.6,0.9-1.1,0.9
	c-0.3,0-0.5-0.2-0.6-0.5c-0.4-0.9-0.3-1.8-0.1-2.7c0.5-1.9,1-3.7,1.5-5.6c0-0.2,0.1-0.3,0.2-0.5c0.1-0.4,0.4-0.5,0.8-0.4
	c0.2,0,0.4,0.1,0.6,0.1c0.3,0,0.5,0.2,0.7,0.4c0.4,0.5,0.6,1.1,0.7,1.7c0.1,0.8,0.2,1.5,0.4,2.3c0-0.1,0.1-0.1,0.1-0.2
	c0.4-1.6,0.8-3.2,1.1-4.8c0.2-0.9,0.3-1.8,0.4-2.7c0.1-0.3,0.2-0.6,0.3-0.9c0.1-0.3,0.4-0.4,0.8-0.4c0.1,0,0.2,0.1,0.3,0.1
	c0.5,0.1,0.8,0.5,0.8,1c0.1,0.8,0,1.5-0.1,2.3c-0.2,1.3-0.5,2.7-0.8,4c-0.3,1.4-0.7,2.7-1,4.1c-0.2,0.7-0.5,1.3-0.7,1.9
	c-0.1,0.4-0.4,0.6-0.8,0.7C56,38,55.7,38.1,55.5,38c-0.2,0-0.4-0.1-0.6-0.3c-0.3-0.2-0.4-0.5-0.5-0.8c-0.2-0.9-0.4-1.8-0.6-2.7
	C53.7,34.2,53.7,34.1,53.7,34.1C53.7,34.1,53.7,34.1,53.7,34.1z"/>
<path class="st3" d="M46.2,35.6c0.3-0.2,0.6-0.4,0.9-0.6c1.1-1,1.8-2.2,2.1-3.7c0.2-0.9,0.3-1.8,0.5-2.6c0.1-0.3,0.2-0.5,0.3-0.8
	c0.1-0.3,0.3-0.3,0.6-0.3c0.3,0.1,0.6,0.3,0.7,0.6c0.1,0.3,0.2,0.6,0.2,1c0,0.8,0.1,1.6,0,2.4c-0.2,1.8-0.8,3.4-2,4.8
	c-0.4,0.5-0.9,0.9-1.4,1.2c-0.7,0.4-1.5,0.5-2.3,0.3c-0.7-0.2-1.2-0.7-1.4-1.4c-0.2-0.5-0.3-0.9-0.3-1.4c-0.1-1.6,0.2-3.2,0.7-4.7
	c0.1-0.3,0.3-0.7,0.4-1c0.1-0.3,0.3-0.3,0.6-0.2c0.6,0.2,0.8,0.5,0.8,1.1c-0.1,0.5-0.2,1.1-0.3,1.6c-0.1,0.9-0.2,1.8-0.2,2.8
	C45.9,34.8,46,35.2,46.2,35.6z"/>
<path class="st1" d="M67,28.6c-0.3,1.4-0.5,2.7-0.8,4.1c0.1,0,0.3,0,0.4,0c-0.1,0.3-0.1,0.5-0.2,0.8c0,0-0.1,0.1-0.2,0.1
	c-0.2,0-0.3,0.1-0.3,0.3c0,0.2-0.1,0.5-0.1,0.7c0,0.1-0.1,0.2-0.2,0.2c-0.3,0-0.5,0.1-0.8,0.1c0.1-0.4,0.1-0.7,0.2-1.1
	c-0.6,0.1-1.2,0.2-1.8,0.2c0.1-0.4,0.1-0.8,0.3-1.1c0.8-1.3,1.5-2.6,2.2-3.9c0-0.1,0.1-0.1,0.1-0.1C66.3,28.7,66.6,28.6,67,28.6z
	 M64.3,32.9c0.3,0,0.6-0.1,0.8-0.1c0,0,0.1-0.1,0.1-0.1c0-0.2,0.1-0.3,0.1-0.5c0.1-0.6,0.2-1.1,0.3-1.7c0,0,0,0,0,0
	C65.2,31.3,64.8,32.1,64.3,32.9z"/>
<path class="st1" d="M60.7,31.4c0.1-0.5,0.1-0.9,0.4-1.3c0.4-0.7,1-1,1.7-1c0.5,0,0.8,0.3,0.8,0.8c0,0.6-0.2,1.1-0.4,1.5
	c-0.4,0.6-0.9,1.2-1.4,1.7c-0.3,0.3-0.6,0.7-0.7,1.2c0,0,0,0.1,0,0.1c0.6-0.1,1.2-0.2,1.8-0.2c-0.1,0.3-0.1,0.5-0.2,0.8
	c0,0.1-0.1,0.1-0.2,0.1c-0.7,0.1-1.4,0.2-2.2,0.3c-0.1,0-0.2,0-0.3,0c0.1-1.1,0.5-2,1.3-2.8c0.4-0.4,0.8-0.9,1.1-1.3
	c0.2-0.3,0.3-0.7,0.3-1c0-0.3-0.1-0.4-0.4-0.3c-0.3,0.1-0.5,0.3-0.5,0.5c-0.1,0.2-0.1,0.4-0.1,0.6c0,0.1-0.1,0.1-0.2,0.1
	C61.2,31.4,61,31.4,60.7,31.4z"/>
<path class="st1" d="M61.2,28.9c0.1-1.1,0.5-2,1.3-2.8c0.3-0.3,0.6-0.7,1-1.1c0.3-0.3,0.4-0.7,0.5-1.1c0-0.1,0-0.4-0.1-0.4
	c-0.1-0.1-0.3-0.1-0.4,0c-0.2,0.1-0.3,0.3-0.4,0.4c-0.1,0.2-0.1,0.4-0.1,0.6c0,0.2-0.1,0.2-0.2,0.2c-0.2,0-0.5,0.1-0.7,0.1
	c0.1-0.5,0.2-1,0.4-1.4c0.4-0.6,1.2-1,1.9-0.9c0.4,0.1,0.6,0.3,0.7,0.7c0.1,0.7-0.2,1.3-0.6,1.9c-0.4,0.5-0.8,1-1.2,1.4
	c-0.2,0.2-0.4,0.5-0.6,0.8c-0.1,0.2-0.1,0.4-0.2,0.6c0.3,0,0.6-0.1,0.9-0.1c0.3,0,0.6-0.1,0.9-0.1c-0.1,0.3-0.1,0.6-0.2,0.8
	c0,0-0.1,0.1-0.1,0.1C62.9,28.7,62.1,28.8,61.2,28.9z"/>
</svg>
