<?xml version="1.0" encoding="utf-8"?>
<!-- Generator: Adobe Illustrator 26.4.1, SVG Export Plug-In . SVG Version: 6.00 Build 0)  -->
<svg version="1.1" id="Capa_1" xmlns="http://www.w3.org/2000/svg" xmlns:xlink="http://www.w3.org/1999/xlink" x="0px" y="0px"
	 viewBox="0 0 535 52.7" style="enable-background:new 0 0 535 52.7;" xml:space="preserve">
<style type="text/css">
	.st0{fill:#070974;}
	.st1{fill:#EBAC2C;}
	.st2{fill:#FFFFFF;}
</style>
<g>
	<g>
		<g>
			<g>
				<path class="st0" d="M421,20.2v1.7h-9.6v25.7h-1.9V21.9h-9.6v-1.7H421z"/>
				<path class="st0" d="M450.2,20.2v1.7h-16.2v11.2h14.5v1.6h-14.5v11.2h16.2v1.7h-18.1V20.2H450.2z"/>
				<path class="st0" d="M484.4,40.6l1.5,1c-2.5,3.6-6.7,6-11.4,6c-7.7,0-13.9-6.1-13.9-13.8c0-7.6,6.2-13.8,13.9-13.8
					c4.8,0,8.9,2.4,11.4,6l-1.5,1c-2.1-3.2-5.8-5.4-9.9-5.4c-6.6,0-12,5.4-12,12.1c0,6.7,5.3,12.1,12,12.1
					C478.6,46,482.3,43.9,484.4,40.6z"/>
				<path class="st0" d="M517.1,20.2h1.9v27.3h-1.9V34.7h-17.3v12.8H498V20.2h1.9v12.8h17.3V20.2z"/>
			</g>
		</g>
		<g>
			<g>
				<path class="st0" d="M234.7,33.9c0-7.8,6.2-13.8,14.1-13.8c7.9,0,14.1,6.1,14.1,13.8c0,7.7-6.2,13.8-14.1,13.8
					C240.9,47.7,234.7,41.6,234.7,33.9z M256.8,33.9c0-5-3.5-8.8-8-8.8c-4.6,0-8,3.8-8,8.8c0,5,3.5,8.8,8,8.8
					C253.3,42.7,256.8,38.9,256.8,33.9z"/>
				<path class="st0" d="M296,20.2v27.3h-5l-12.2-16.4h-0.2v16.4h-6.1V20.2h5l12.2,16.4h0.2V20.2H296z"/>
				<path class="st0" d="M317,20.2c8,0,14.2,5.9,14.2,13.7c0,7.7-6.2,13.7-14.2,13.7h-10.1V20.2H317z M312.9,42.6h4.1
					c4.7,0,8.2-3.6,8.2-8.7c0-5-3.5-8.7-8.2-8.7h-4.1V42.6z"/>
				<path class="st0" d="M360.6,20.2v4.9H347v6.4h11.9v4.9H347v6.2h13.6v4.9H341V20.2H360.6z"/>
				<path class="st0" d="M388.7,47.6l-6.2-9.6h-5.4v9.6h-6.1V20.2h13.9c5,0,8.8,3.8,8.8,8.9c0,3.8-2.2,6.9-5.4,8.2l6.6,10.2H388.7z
					 M377.1,25.2V33h6.7c2.1,0,3.8-1.7,3.8-3.9c0-2.2-1.7-3.9-3.8-3.9L377.1,25.2z"/>
			</g>
		</g>
		<polygon class="st1" points="231.4,5.9 215.9,38.4 211,25.1 220.1,6 212.5,5.9 207.7,16.1 203.9,6 195.3,6 203.2,25.5 197.1,38.4 
			185.1,6 176.4,6 193.5,47.7 200.4,47.7 206.8,34.1 212.3,47.7 219.2,47.7 238.9,6 		"/>
	</g>
	<g>
		<path class="st0" d="M146,47.7H42.5c-12.2,0-22-9.8-22-22v0c0-12.2,9.8-22,22-22H146c12.2,0,22,9.8,22,22v0
			C168,37.9,158.2,47.7,146,47.7z"/>
		<g>
			<g>
				<g>
					<path class="st2" d="M80.9,16v1.2H69.4v8h10.3v1.2H69.4v7.9h11.5v1.2H68.1V16H80.9z"/>
					<path class="st2" d="M104.9,35.4l-2.4-5.9H92.2l-2.4,5.9h-1.4l8-19.4h1.9l8,19.4H104.9z M92.7,28.4h9.3l-4.6-11.2L92.7,28.4z"
						/>
					<path class="st2" d="M123,27.8l5.1,7.6h-1.5l-5.1-7.6h-6.4v7.6h-1.3V16h8.4c3.3,0,5.9,2.6,5.9,5.9
						C128.1,24.9,125.9,27.4,123,27.8z M115.1,17.2v9.5h7c2.5,0,4.7-2.1,4.7-4.7c0-2.6-2.2-4.7-4.7-4.7H115.1z"/>
					<path class="st2" d="M149.8,16v1.2h-11.5v8h10.3v1.2h-10.3v7.9h11.5v1.2h-12.9V16H149.8z"/>
				</g>
			</g>
			<polygon class="st2" points="62.1,16 55.3,34.2 51.8,25.1 55.2,16 53.8,16 51.1,23.2 48.4,16 47,16 50.4,25.1 47,34.2 40.1,16 
				38.7,16 46,35.4 47.9,35.4 51.1,26.9 54.3,35.4 56.2,35.4 63.5,16 			"/>
		</g>
	</g>
</g>
</svg>
